<?xml version="1.0" encoding="UTF-8" standalone="no" ?>
<!DOCTYPE svg PUBLIC "-//W3C//DTD SVG 1.1//EN" "http://www.w3.org/Graphics/SVG/1.1/DTD/svg11.dtd">
<svg xmlns="http://www.w3.org/2000/svg" xmlns:xlink="http://www.w3.org/1999/xlink" version="1.1" width="1280" height="1024" viewBox="0 0 1280 1024" xml:space="preserve">
<desc>Created with Fabric.js 5.3.0</desc>
<defs>
</defs>
<g transform="matrix(1 0 0 1 640 512)" id="background-logo"  >
<rect style="stroke: none; stroke-width: 0; stroke-dasharray: none; stroke-linecap: butt; stroke-dashoffset: 0; stroke-linejoin: miter; stroke-miterlimit: 4; fill: rgb(255,255,255); fill-rule: nonzero; opacity: 1;"  paint-order="stroke"  x="-640" y="-512" rx="0" ry="0" width="1280" height="1024" />
</g>
<g transform="matrix(1.8572299762798763 0 0 1.8572299762798763 216.4642063177763 512.4716713881021)" id="logo-logo"  >
<g style=""  paint-order="stroke"   >
		<g transform="matrix(0.908018397114089 0 0 0.908018397114089 0 0)"  >
<g style=""  paint-order="stroke"   >
		<g transform="matrix(1 0 0 1 5 5.384999999999991)"  >
<polygon style="stroke: none; stroke-width: 1; stroke-dasharray: none; stroke-linecap: butt; stroke-dashoffset: 0; stroke-linejoin: miter; stroke-miterlimit: 4; fill: rgb(173,198,225); fill-rule: nonzero; opacity: 1;"  paint-order="stroke"  points="83.94999999999999,-94.49499999999999 83.94999999999999,83.73500000000001 -95,83.73500000000001 -95,94.495 95,94.495 95,-94.49499999999999 83.94999999999999,-94.49499999999999 " />
</g>
		<g transform="matrix(1 0 0 1 -10.5 -10.379999999999995)"  >
<polygon style="stroke: none; stroke-width: 1; stroke-dasharray: none; stroke-linecap: butt; stroke-dashoffset: 0; stroke-linejoin: miter; stroke-miterlimit: 4; fill: rgb(173,198,225); fill-rule: nonzero; opacity: 1;"  paint-order="stroke"  points="89.5,89.5 89.5,-68.73 89.5,-79.5 89.5,-89.5 -89.5,-89.5 -89.5,89.5 -79.5,89.5 -69.5,89.5 89.5,89.5 " />
</g>
</g>
</g>
</g>
</g>
<g transform="matrix(1.9211538461538462 0 0 1.9211538461538462 835.1628900227661 511.42533415733277)" id="text-logo"  >
<g style=""  paint-order="stroke"   >
		<g transform="matrix(1 0 0 1 0 0)" id="text-logo-path-0"  >
<path style="stroke: none; stroke-width: 0.7804941262139596; stroke-dasharray: none; stroke-linecap: butt; stroke-dashoffset: 0; stroke-linejoin: miter; stroke-miterlimit: 4; fill: rgb(173,198,225); fill-rule: nonzero; opacity: 1;"  paint-order="stroke"  transform=" translate(-193.285, 23.79)" d="M 2.66 -47.58 L 2.66 0 L 10.58 0 L 10.58 -33.97 L 18.8 0 L 28.05 0 L 36.33 -33.97 L 36.33 0 L 44.25 0 L 44.25 -47.58 L 32.12 -47.58 L 23.46 -12.14 L 23.38 -12.14 L 14.8 -47.58 Z M 100.49 -40.26 C 101.38 -40.26 101.82 -39.81 101.82 -38.92 L 101.82 -8.58 C 101.82 -7.75 101.38 -7.33 100.49 -7.33 L 92.57 -7.33 C 91.69 -7.28 91.24 -7.7 91.24 -8.58 L 91.24 -38.92 C 91.24 -39.81 91.69 -40.26 92.57 -40.26 Z M 88.58 -47.58 C 87.1 -47.58 85.85 -47.06 84.84 -46.03 C 83.83 -44.99 83.32 -43.73 83.32 -42.25 L 83.32 -5.25 C 83.32 -3.77 83.83 -2.53 84.84 -1.52 C 85.85 -0.51 87.1 0 88.58 0 L 104.41 0 C 105.89 0 107.15 -0.51 108.19 -1.52 C 109.22 -2.53 109.74 -3.77 109.74 -5.25 L 109.74 -42.25 C 109.74 -43.73 109.22 -44.99 108.19 -46.03 C 107.15 -47.06 105.89 -47.58 104.41 -47.58 Z M 148.74 -47.58 L 148.74 0 L 156.66 0 L 156.66 -33.97 L 164.87 0 L 174.12 0 L 182.41 -33.97 L 182.41 0 L 190.33 0 L 190.33 -47.58 L 178.19 -47.58 L 169.53 -12.14 L 169.46 -12.14 L 160.88 -47.58 Z M 229.4 -47.58 L 229.4 0 L 253.15 0 L 253.15 -7.33 L 237.32 -7.33 L 237.32 -20.13 L 250.49 -20.13 L 250.49 -27.45 L 237.32 -27.45 L 237.32 -40.26 L 251.82 -40.26 L 251.82 -47.58 Z M 292.15 -47.58 L 292.15 0 L 300.07 0 L 300.07 -27.9 L 311.24 0 L 319.9 0 L 319.9 -47.58 L 311.98 -47.58 L 311.98 -19.68 L 300.66 -47.58 Z M 358.9 -47.58 L 358.9 -40.26 L 367.41 -40.26 L 367.41 0 L 375.4 0 L 375.4 -40.26 L 383.91 -40.26 L 383.91 -47.58 Z" stroke-linecap="round" />
</g>
</g>
</g>
<g transform="matrix(1.9211538461538462 0 0 1.9211538461538462 176.0020053953803 421.64490131036257)" id="tagline-892c70df-90f6-45fd-8529-3281b2ead625-logo"  >
<g style=""  paint-order="stroke"   >
		<g transform="matrix(1 0 0 1 0 0)" id="tagline-892c70df-90f6-45fd-8529-3281b2ead625-logo-path-0"  >
<path style="stroke: none; stroke-width: 0; stroke-dasharray: none; stroke-linecap: butt; stroke-dashoffset: 0; stroke-linejoin: miter; stroke-miterlimit: 4; fill: rgb(255,255,255); fill-rule: nonzero; opacity: 1;"  paint-order="stroke"  transform=" translate(-11.075, 5.465)" d="M 4.56 -9.25 C 4.76 -9.25 4.86 -9.15 4.86 -8.94 L 4.86 -1.97 C 4.86 -1.78 4.76 -1.68 4.56 -1.68 L 2.74 -1.68 C 2.53 -1.67 2.43 -1.77 2.43 -1.97 L 2.43 -8.94 C 2.43 -9.15 2.53 -9.25 2.74 -9.25 Z M 1.82 -10.93 C 1.48 -10.93 1.19 -10.81 0.96 -10.57 C 0.73 -10.34 0.61 -10.05 0.61 -9.71 L 0.61 -1.21 C 0.61 -0.87 0.73 -0.58 0.96 -0.35 C 1.19 -0.12 1.48 0 1.82 0 L 5.46 0 C 5.8 0 6.09 -0.12 6.32 -0.35 C 6.56 -0.58 6.68 -0.87 6.68 -1.21 L 6.68 -9.71 C 6.68 -10.05 6.56 -10.34 6.32 -10.57 C 6.09 -10.81 5.8 -10.93 5.46 -10.93 Z M 7.89 -10.93 L 7.89 -1.21 C 7.89 -0.87 8 -0.58 8.24 -0.35 C 8.47 -0.12 8.76 0 9.1 0 L 12.73 0 C 13.07 0 13.36 -0.12 13.6 -0.35 C 13.84 -0.58 13.96 -0.87 13.96 -1.21 L 13.96 -10.93 L 12.14 -10.93 L 12.14 -1.97 C 12.14 -1.78 12.04 -1.68 11.83 -1.68 L 10.01 -1.68 C 9.81 -1.67 9.71 -1.77 9.71 -1.97 L 9.71 -10.93 Z M 19.11 -9.25 C 19.31 -9.25 19.41 -9.15 19.41 -8.94 L 19.41 -6.61 C 19.41 -6.41 19.31 -6.31 19.11 -6.31 L 16.98 -6.31 L 16.98 -9.25 Z M 15.16 -10.93 L 15.16 0 L 16.98 0 L 16.98 -4.62 L 17.32 -4.62 L 19.52 0 L 21.54 0 L 19.35 -4.62 L 20.01 -4.62 C 20.35 -4.62 20.64 -4.74 20.88 -4.98 C 21.11 -5.22 21.23 -5.51 21.23 -5.85 L 21.23 -9.71 C 21.23 -10.05 21.11 -10.34 20.87 -10.57 C 20.62 -10.81 20.34 -10.93 20.01 -10.93 Z" stroke-linecap="round" />
</g>
</g>
</g>
<g transform="matrix(1.9211538461538462 0 0 1.9211538461538462 260.4138664963946 556.9348285768101)" id="tagline-243f3d0a-796c-4ca5-9685-8e44b251fe38-logo"  >
<g style=""  paint-order="stroke"   >
		<g transform="matrix(1 0 0 1 0 0)" id="tagline-243f3d0a-796c-4ca5-9685-8e44b251fe38-logo-path-0"  >
<path style="stroke: none; stroke-width: 0; stroke-dasharray: none; stroke-linecap: butt; stroke-dashoffset: 0; stroke-linejoin: miter; stroke-miterlimit: 4; fill: rgb(255,255,255); fill-rule: nonzero; opacity: 1;"  paint-order="stroke"  transform=" translate(-65.98, 55.15)" d="M 32.57 0 L 10.83 0 L 10.83 -110.3 L 33.03 -110.3 L 65.91 -77.27 L 99.01 -110.3 L 121.13 -110.3 L 121.13 0 L 99.01 0 L 99.01 -78.94 L 81.29 -61.59 L 81.74 -61.59 L 65.91 -46.06 L 32.57 -78.94 Z" stroke-linecap="round" />
</g>
</g>
</g>
</svg>